<?xml version="1.0" encoding="utf-8"?>
<!-- Generator: Adobe Illustrator 19.0.0, SVG Export Plug-In . SVG Version: 6.00 Build 0)  -->
<svg version="1.1" id="图层_1" xmlns="http://www.w3.org/2000/svg" xmlns:xlink="http://www.w3.org/1999/xlink" x="0px" y="0px"
	 viewBox="0 0 960 560" style="enable-background:new 0 0 960 560;" xml:space="preserve">
<style type="text/css">
	.st0{fill:#011D67;}
	.st1{fill:#FFFFFF;}
	.st2{fill:#A08D1F;}
</style>
<g id="XMLID_2_">
	<g id="XMLID_9_">
		<path id="XMLID_6_" class="st0" d="M193.3,235.8c13-82.2,79.7-178.5,206-210.6c-21.3,53.5-31.3,109.5-35.9,167
			C312.8,199,255.3,204.7,193.3,235.8z"/>
		<path id="XMLID_7_" class="st0" d="M743.5,228c-15-85.5-96.8-180.5-208.3-203.7c21.3,53.5,31.7,108.6,36.2,166.1
			C622,194.5,685.5,203.5,743.5,228z"/>
		<path id="XMLID_1_" class="st0" d="M404.8,24.3c35.5-9.5,95-8.3,123.3-1.4c19.4,36.3,33.2,115.5,37.9,166.5
			c-55.2-5.5-153.7-3.7-197.1,2C374.3,128.5,384.6,78.9,404.8,24.3z"/>
		<path id="XMLID_16_" class="st0" d="M191.5,314.4c13.2,92.2,78.3,185.8,207.8,219.8c-20.6-54.2-31.7-113.7-37.4-175
			C311.3,352.6,253.5,345.6,191.5,314.4z"/>
		<path id="XMLID_15_" class="st0" d="M745.4,322.6c-13.7,91.4-96.1,189-210.3,212.7c21.3-53.5,33.2-120.6,38.3-175.5
			C624,356.8,684.4,347.7,745.4,322.6z"/>
		<path id="XMLID_12_" class="st0" d="M406.8,536.2c38,8.3,93,7.7,121.4,0.8c24.8-66.5,33.8-118.9,38.4-174.6
			c-61.3,4.3-149.8,1.8-198.1-1.9C373.3,419.4,383.5,480.7,406.8,536.2z"/>
		<path id="XMLID_10_" class="st0" d="M191.6,243.8c-2.6,20.2-4.4,36.4-0.7,63.8c42.4,26.8,124.4,41.8,170.8,46
			c-3.5-62.9-2.8-111.2,0.4-155.9C302.8,203,224.8,221.2,191.6,243.8z"/>
		<path id="XMLID_17_" class="st0" d="M746.1,235.9c2.6,20.2,5,51.2,1.2,78.6C698.5,338.7,623,351,573.3,355
			c5.3-62.5,2.6-114.7-0.6-159.3C632,201,694.3,212,746.1,235.9z"/>
		<path id="XMLID_11_" class="st0" d="M368,196.7c-2.5,13.2-5.9,110.4-0.4,157.8c73.7,7.5,159.9,6,200,1.5c2.5-34,5.9-99.8-0.8-161
			C526.8,191.4,417.5,190,368,196.7z"/>
	</g>
	<g id="XMLID_31_">
		<path id="XMLID_18_" class="st1" d="M498.3,308.7H461V293h37.3c3.6,0,6.5,2.9,6.5,6.5v2.6C504.8,305.8,501.8,308.7,498.3,308.7z"
			/>
		<path id="XMLID_20_" class="st1" d="M516.2,326.6h-55V311h55c3.6,0,6.5,2.9,6.5,6.5v2.6C522.7,323.7,519.8,326.6,516.2,326.6z"/>
		<path id="XMLID_21_" class="st1" d="M378.3,250.8c6-24.6,30.5-38.8,55.5-38.8c28.2-0.1,53.3,15.9,56.7,41.1
			c-19.3-13.5-34.9-17.9-51.5-17.4c0,18.3-0.4,48.1-0.3,71.1c-0.4,10.6-6.8,21.3-17.4,25.6c-4.4,1.8-13.3,1.2-22.3,1
			c0-2.6,0.1-9.6,0.1-14c8.9,3.4,12.1,2.6,16.8,1.6c5.3-2.1,8.2-7.4,9.3-14.4c0.8-17.6,0.4-59,0.3-70.8
			C412.5,236.3,395.3,239.1,378.3,250.8z"/>
	</g>
</g>
<path id="XMLID_30_" class="st2" d="M64.3,177.3"/>
</svg>
